<?xml version="1.0" encoding="utf-8"?>
<!-- Generator: Adobe Illustrator 15.0.2, SVG Export Plug-In . SVG Version: 6.00 Build 0)  -->
<!DOCTYPE svg PUBLIC "-//W3C//DTD SVG 1.1//EN" "http://www.w3.org/Graphics/SVG/1.1/DTD/svg11.dtd">
<svg version="1.1" xmlns="http://www.w3.org/2000/svg" xmlns:xlink="http://www.w3.org/1999/xlink" x="0px" y="0px"
	 width="141.73px" height="141.73px" viewBox="0 0 141.73 141.73" enable-background="new 0 0 141.73 141.73" xml:space="preserve">
<g id="Layer_2">
	<rect fill="#4167B1" width="141.73" height="141.73"/>
</g>
<g id="Layer_1">
	<g>
		<path d="M56.683,91.917v27.074c0,2.641,0.096,5.425,0.191,7.009h-6.48l-0.336-3.456h-0.096c-1.488,2.64-4.32,3.984-7.345,3.984
			c-5.569,0-10.033-4.753-10.033-12.05c-0.048-7.92,4.896-12.48,10.513-12.48c2.881,0,5.137,1.008,6.193,2.64h0.096V91.917H56.683z
			 M49.386,112.463c0-0.384-0.048-0.912-0.096-1.296c-0.433-1.969-2.017-3.601-4.272-3.601c-3.312,0-5.041,2.977-5.041,6.673
			c0,3.984,1.968,6.48,4.992,6.48c2.112,0,3.793-1.44,4.225-3.505c0.145-0.527,0.192-1.056,0.192-1.68V112.463z"/>
		<path d="M84.666,118.463c0,3.072,0.096,5.569,0.191,7.537h-6.336l-0.337-3.312h-0.144c-0.912,1.44-3.12,3.841-7.345,3.841
			c-4.752,0-8.257-2.977-8.257-10.226v-13.776h7.345v12.625c0,3.408,1.104,5.472,3.648,5.472c2.017,0,3.168-1.392,3.648-2.544
			c0.192-0.432,0.24-1.008,0.24-1.584v-13.969h7.345V118.463z"/>
		<path d="M90.472,119.615c1.345,0.816,4.129,1.776,6.289,1.776c2.208,0,3.12-0.769,3.12-1.968c0-1.2-0.72-1.776-3.456-2.688
			c-4.849-1.632-6.721-4.272-6.673-7.057c0-4.368,3.744-7.681,9.553-7.681c2.736,0,5.185,0.624,6.625,1.344l-1.297,5.041
			c-1.056-0.576-3.072-1.345-5.088-1.345c-1.776,0-2.784,0.721-2.784,1.921c0,1.104,0.912,1.68,3.792,2.688
			c4.465,1.536,6.337,3.793,6.385,7.249c0,4.368-3.456,7.585-10.177,7.585c-3.072,0-5.809-0.673-7.585-1.633L90.472,119.615z"/>
		<path d="M119.512,95.806v6.721h5.232v5.376h-5.232v8.497c0,2.832,0.672,4.128,2.88,4.128c0.912,0,1.633-0.096,2.161-0.191
			l0.048,5.521c-0.96,0.384-2.688,0.624-4.753,0.624c-2.352,0-4.32-0.816-5.473-2.017c-1.344-1.393-2.016-3.648-2.016-6.961v-9.601
			h-3.12v-5.376h3.12v-5.089L119.512,95.806z"/>
	</g>
</g>
</svg>
